<mxfile host="www.draw.io" modified="2023-04-21T17:59:59.497Z" agent="Mozilla/5.0 (Windows NT 10.0; Win64; x64) AppleWebKit/537.36 (KHTML, like Gecko) Chrome/112.0.0.0 Safari/537.36 Edg/112.0.1722.48" etag="6pU9aS6Fl1IyPN-tSjjP" version="21.2.1" type="device">
  <diagram name="Page-1" id="HG3xklR0WX15mcMttV4-">
    <mxGraphModel dx="1986" dy="1146" grid="1" gridSize="10" guides="1" tooltips="1" connect="1" arrows="1" fold="1" page="1" pageScale="1" pageWidth="850" pageHeight="1100" math="0" shadow="0">
      <root>
        <mxCell id="0" />
        <mxCell id="1" parent="0" />
        <mxCell id="OOvqdJ-VLrMjojBCIsOj-29" style="edgeStyle=orthogonalEdgeStyle;rounded=0;orthogonalLoop=1;jettySize=auto;html=1;entryX=-0.23;entryY=0.497;entryDx=0;entryDy=0;entryPerimeter=0;" edge="1" parent="1" source="OOvqdJ-VLrMjojBCIsOj-1" target="OOvqdJ-VLrMjojBCIsOj-14">
          <mxGeometry relative="1" as="geometry">
            <mxPoint x="390" y="100" as="targetPoint" />
          </mxGeometry>
        </mxCell>
        <mxCell id="OOvqdJ-VLrMjojBCIsOj-1" value="" style="ellipse;html=1;shape=startState;fillColor=#000000;strokeColor=#ff0000;" vertex="1" parent="1">
          <mxGeometry x="387.5" y="30" width="30" height="30" as="geometry" />
        </mxCell>
        <mxCell id="OOvqdJ-VLrMjojBCIsOj-32" style="edgeStyle=orthogonalEdgeStyle;rounded=0;orthogonalLoop=1;jettySize=auto;html=1;entryX=0.5;entryY=0.5;entryDx=0;entryDy=-15;entryPerimeter=0;" edge="1" parent="1" source="OOvqdJ-VLrMjojBCIsOj-3" target="OOvqdJ-VLrMjojBCIsOj-5">
          <mxGeometry relative="1" as="geometry" />
        </mxCell>
        <mxCell id="OOvqdJ-VLrMjojBCIsOj-3" value="Login" style="html=1;dashed=0;whiteSpace=wrap;shape=mxgraph.dfd.start" vertex="1" parent="1">
          <mxGeometry x="260" y="190" width="80" height="30" as="geometry" />
        </mxCell>
        <mxCell id="OOvqdJ-VLrMjojBCIsOj-33" style="edgeStyle=orthogonalEdgeStyle;rounded=0;orthogonalLoop=1;jettySize=auto;html=1;entryX=0.5;entryY=0.5;entryDx=0;entryDy=-15;entryPerimeter=0;" edge="1" parent="1" source="OOvqdJ-VLrMjojBCIsOj-4" target="OOvqdJ-VLrMjojBCIsOj-9">
          <mxGeometry relative="1" as="geometry" />
        </mxCell>
        <mxCell id="OOvqdJ-VLrMjojBCIsOj-4" value="Signup" style="html=1;dashed=0;whiteSpace=wrap;shape=mxgraph.dfd.start" vertex="1" parent="1">
          <mxGeometry x="457.5" y="190" width="80" height="30" as="geometry" />
        </mxCell>
        <mxCell id="OOvqdJ-VLrMjojBCIsOj-34" style="edgeStyle=orthogonalEdgeStyle;rounded=0;orthogonalLoop=1;jettySize=auto;html=1;entryX=0.5;entryY=0;entryDx=0;entryDy=0;" edge="1" parent="1" source="OOvqdJ-VLrMjojBCIsOj-5" target="OOvqdJ-VLrMjojBCIsOj-6">
          <mxGeometry relative="1" as="geometry" />
        </mxCell>
        <mxCell id="OOvqdJ-VLrMjojBCIsOj-5" value="Validation" style="html=1;dashed=0;whiteSpace=wrap;shape=mxgraph.dfd.start" vertex="1" parent="1">
          <mxGeometry x="227.5" y="280" width="145" height="30" as="geometry" />
        </mxCell>
        <mxCell id="OOvqdJ-VLrMjojBCIsOj-40" style="edgeStyle=orthogonalEdgeStyle;rounded=0;orthogonalLoop=1;jettySize=auto;html=1;entryX=0.5;entryY=0.5;entryDx=0;entryDy=-20;entryPerimeter=0;" edge="1" parent="1" source="OOvqdJ-VLrMjojBCIsOj-6" target="OOvqdJ-VLrMjojBCIsOj-8">
          <mxGeometry relative="1" as="geometry" />
        </mxCell>
        <mxCell id="OOvqdJ-VLrMjojBCIsOj-41" style="edgeStyle=orthogonalEdgeStyle;rounded=0;orthogonalLoop=1;jettySize=auto;html=1;entryX=0;entryY=0.5;entryDx=0;entryDy=0;entryPerimeter=0;" edge="1" parent="1" source="OOvqdJ-VLrMjojBCIsOj-6" target="OOvqdJ-VLrMjojBCIsOj-3">
          <mxGeometry relative="1" as="geometry">
            <Array as="points">
              <mxPoint x="210" y="365" />
              <mxPoint x="210" y="205" />
            </Array>
          </mxGeometry>
        </mxCell>
        <mxCell id="OOvqdJ-VLrMjojBCIsOj-6" value="" style="rhombus;" vertex="1" parent="1">
          <mxGeometry x="285" y="350" width="30" height="30" as="geometry" />
        </mxCell>
        <mxCell id="OOvqdJ-VLrMjojBCIsOj-47" style="edgeStyle=orthogonalEdgeStyle;rounded=0;orthogonalLoop=1;jettySize=auto;html=1;entryX=-0.44;entryY=0.486;entryDx=0;entryDy=0;entryPerimeter=0;" edge="1" parent="1" source="OOvqdJ-VLrMjojBCIsOj-7" target="OOvqdJ-VLrMjojBCIsOj-16">
          <mxGeometry relative="1" as="geometry" />
        </mxCell>
        <mxCell id="OOvqdJ-VLrMjojBCIsOj-7" value="create new user&lt;br&gt;in DB" style="html=1;dashed=0;whiteSpace=wrap;shape=mxgraph.dfd.start" vertex="1" parent="1">
          <mxGeometry x="427.5" y="420" width="140" height="40" as="geometry" />
        </mxCell>
        <mxCell id="OOvqdJ-VLrMjojBCIsOj-44" style="edgeStyle=orthogonalEdgeStyle;rounded=0;orthogonalLoop=1;jettySize=auto;html=1;entryX=1;entryY=0.5;entryDx=0;entryDy=0;" edge="1" parent="1" source="OOvqdJ-VLrMjojBCIsOj-8" target="OOvqdJ-VLrMjojBCIsOj-12">
          <mxGeometry relative="1" as="geometry" />
        </mxCell>
        <mxCell id="OOvqdJ-VLrMjojBCIsOj-8" value="Authanticate &lt;br&gt;credentials" style="html=1;dashed=0;whiteSpace=wrap;shape=mxgraph.dfd.start" vertex="1" parent="1">
          <mxGeometry x="230" y="420" width="140" height="40" as="geometry" />
        </mxCell>
        <mxCell id="OOvqdJ-VLrMjojBCIsOj-35" style="edgeStyle=orthogonalEdgeStyle;rounded=0;orthogonalLoop=1;jettySize=auto;html=1;entryX=0.5;entryY=0;entryDx=0;entryDy=0;" edge="1" parent="1" source="OOvqdJ-VLrMjojBCIsOj-9" target="OOvqdJ-VLrMjojBCIsOj-11">
          <mxGeometry relative="1" as="geometry" />
        </mxCell>
        <mxCell id="OOvqdJ-VLrMjojBCIsOj-9" value="Validation" style="html=1;dashed=0;whiteSpace=wrap;shape=mxgraph.dfd.start" vertex="1" parent="1">
          <mxGeometry x="425" y="280" width="145" height="30" as="geometry" />
        </mxCell>
        <mxCell id="OOvqdJ-VLrMjojBCIsOj-36" style="edgeStyle=orthogonalEdgeStyle;rounded=0;orthogonalLoop=1;jettySize=auto;html=1;entryX=1;entryY=0.5;entryDx=0;entryDy=0;entryPerimeter=0;" edge="1" parent="1" source="OOvqdJ-VLrMjojBCIsOj-11" target="OOvqdJ-VLrMjojBCIsOj-4">
          <mxGeometry relative="1" as="geometry">
            <Array as="points">
              <mxPoint x="600" y="365" />
              <mxPoint x="600" y="205" />
            </Array>
          </mxGeometry>
        </mxCell>
        <mxCell id="OOvqdJ-VLrMjojBCIsOj-38" style="edgeStyle=orthogonalEdgeStyle;rounded=0;orthogonalLoop=1;jettySize=auto;html=1;entryX=0.5;entryY=0.5;entryDx=0;entryDy=-20;entryPerimeter=0;" edge="1" parent="1" source="OOvqdJ-VLrMjojBCIsOj-11" target="OOvqdJ-VLrMjojBCIsOj-7">
          <mxGeometry relative="1" as="geometry" />
        </mxCell>
        <mxCell id="OOvqdJ-VLrMjojBCIsOj-11" value="" style="rhombus;" vertex="1" parent="1">
          <mxGeometry x="482.5" y="350" width="30" height="30" as="geometry" />
        </mxCell>
        <mxCell id="OOvqdJ-VLrMjojBCIsOj-49" style="edgeStyle=orthogonalEdgeStyle;rounded=0;orthogonalLoop=1;jettySize=auto;html=1;entryX=0;entryY=0;entryDx=4.395;entryDy=4.395000000000001;entryPerimeter=0;" edge="1" parent="1" source="OOvqdJ-VLrMjojBCIsOj-12" target="OOvqdJ-VLrMjojBCIsOj-3">
          <mxGeometry relative="1" as="geometry">
            <Array as="points">
              <mxPoint x="165" y="194" />
            </Array>
          </mxGeometry>
        </mxCell>
        <mxCell id="OOvqdJ-VLrMjojBCIsOj-52" style="edgeStyle=orthogonalEdgeStyle;rounded=0;orthogonalLoop=1;jettySize=auto;html=1;entryX=-0.39;entryY=0.484;entryDx=0;entryDy=0;entryPerimeter=0;" edge="1" parent="1" source="OOvqdJ-VLrMjojBCIsOj-12" target="OOvqdJ-VLrMjojBCIsOj-16">
          <mxGeometry relative="1" as="geometry">
            <Array as="points">
              <mxPoint x="165" y="490" />
              <mxPoint x="407" y="490" />
            </Array>
          </mxGeometry>
        </mxCell>
        <mxCell id="OOvqdJ-VLrMjojBCIsOj-12" value="" style="rhombus;" vertex="1" parent="1">
          <mxGeometry x="150" y="425" width="30" height="30" as="geometry" />
        </mxCell>
        <mxCell id="OOvqdJ-VLrMjojBCIsOj-30" style="edgeStyle=orthogonalEdgeStyle;rounded=0;orthogonalLoop=1;jettySize=auto;html=1;entryX=0.5;entryY=0.5;entryDx=0;entryDy=-15;entryPerimeter=0;" edge="1" parent="1" source="OOvqdJ-VLrMjojBCIsOj-14" target="OOvqdJ-VLrMjojBCIsOj-3">
          <mxGeometry relative="1" as="geometry" />
        </mxCell>
        <mxCell id="OOvqdJ-VLrMjojBCIsOj-31" style="edgeStyle=orthogonalEdgeStyle;rounded=0;orthogonalLoop=1;jettySize=auto;html=1;entryX=0.5;entryY=0.5;entryDx=0;entryDy=-15;entryPerimeter=0;" edge="1" parent="1" source="OOvqdJ-VLrMjojBCIsOj-14" target="OOvqdJ-VLrMjojBCIsOj-4">
          <mxGeometry relative="1" as="geometry" />
        </mxCell>
        <mxCell id="OOvqdJ-VLrMjojBCIsOj-14" value="" style="html=1;points=[];perimeter=orthogonalPerimeter;fillColor=strokeColor;rotation=90;" vertex="1" parent="1">
          <mxGeometry x="400" y="37.5" width="5" height="145" as="geometry" />
        </mxCell>
        <mxCell id="OOvqdJ-VLrMjojBCIsOj-55" style="edgeStyle=orthogonalEdgeStyle;rounded=0;orthogonalLoop=1;jettySize=auto;html=1;entryX=0.5;entryY=0.5;entryDx=0;entryDy=-20;entryPerimeter=0;" edge="1" parent="1" source="OOvqdJ-VLrMjojBCIsOj-16" target="OOvqdJ-VLrMjojBCIsOj-17">
          <mxGeometry relative="1" as="geometry" />
        </mxCell>
        <mxCell id="OOvqdJ-VLrMjojBCIsOj-16" value="" style="html=1;points=[];perimeter=orthogonalPerimeter;fillColor=strokeColor;rotation=90;" vertex="1" parent="1">
          <mxGeometry x="402.5" y="450" width="5" height="145" as="geometry" />
        </mxCell>
        <mxCell id="OOvqdJ-VLrMjojBCIsOj-56" style="edgeStyle=orthogonalEdgeStyle;rounded=0;orthogonalLoop=1;jettySize=auto;html=1;entryX=-0.545;entryY=0.485;entryDx=0;entryDy=0;entryPerimeter=0;" edge="1" parent="1" source="OOvqdJ-VLrMjojBCIsOj-17" target="OOvqdJ-VLrMjojBCIsOj-22">
          <mxGeometry relative="1" as="geometry" />
        </mxCell>
        <mxCell id="OOvqdJ-VLrMjojBCIsOj-17" value="Landing Page / Home" style="html=1;dashed=0;whiteSpace=wrap;shape=mxgraph.dfd.start" vertex="1" parent="1">
          <mxGeometry x="321.25" y="570" width="167.5" height="40" as="geometry" />
        </mxCell>
        <mxCell id="OOvqdJ-VLrMjojBCIsOj-60" style="edgeStyle=orthogonalEdgeStyle;rounded=0;orthogonalLoop=1;jettySize=auto;html=1;entryX=0.283;entryY=0.504;entryDx=0;entryDy=0;entryPerimeter=0;" edge="1" parent="1" source="OOvqdJ-VLrMjojBCIsOj-19" target="OOvqdJ-VLrMjojBCIsOj-23">
          <mxGeometry relative="1" as="geometry">
            <Array as="points">
              <mxPoint x="190" y="830" />
              <mxPoint x="402" y="830" />
            </Array>
          </mxGeometry>
        </mxCell>
        <mxCell id="OOvqdJ-VLrMjojBCIsOj-19" value="Browse Comics" style="html=1;dashed=0;whiteSpace=wrap;shape=mxgraph.dfd.start" vertex="1" parent="1">
          <mxGeometry x="120" y="760" width="140" height="40" as="geometry" />
        </mxCell>
        <mxCell id="OOvqdJ-VLrMjojBCIsOj-61" style="edgeStyle=orthogonalEdgeStyle;rounded=0;orthogonalLoop=1;jettySize=auto;html=1;" edge="1" parent="1" source="OOvqdJ-VLrMjojBCIsOj-20">
          <mxGeometry relative="1" as="geometry">
            <mxPoint x="402.5" y="880" as="targetPoint" />
          </mxGeometry>
        </mxCell>
        <mxCell id="OOvqdJ-VLrMjojBCIsOj-20" value="Search Issues" style="html=1;dashed=0;whiteSpace=wrap;shape=mxgraph.dfd.start" vertex="1" parent="1">
          <mxGeometry x="332.5" y="760" width="140" height="40" as="geometry" />
        </mxCell>
        <mxCell id="OOvqdJ-VLrMjojBCIsOj-27" style="edgeStyle=orthogonalEdgeStyle;rounded=0;orthogonalLoop=1;jettySize=auto;html=1;entryX=0.5;entryY=0;entryDx=0;entryDy=0;" edge="1" parent="1" source="OOvqdJ-VLrMjojBCIsOj-21" target="OOvqdJ-VLrMjojBCIsOj-26">
          <mxGeometry relative="1" as="geometry" />
        </mxCell>
        <mxCell id="OOvqdJ-VLrMjojBCIsOj-62" style="edgeStyle=orthogonalEdgeStyle;rounded=0;orthogonalLoop=1;jettySize=auto;html=1;entryX=0.12;entryY=0.505;entryDx=0;entryDy=0;entryPerimeter=0;" edge="1" parent="1" source="OOvqdJ-VLrMjojBCIsOj-21" target="OOvqdJ-VLrMjojBCIsOj-23">
          <mxGeometry relative="1" as="geometry">
            <Array as="points">
              <mxPoint x="608" y="830" />
              <mxPoint x="402" y="830" />
            </Array>
          </mxGeometry>
        </mxCell>
        <mxCell id="OOvqdJ-VLrMjojBCIsOj-21" value="View Profile" style="html=1;dashed=0;whiteSpace=wrap;shape=mxgraph.dfd.start" vertex="1" parent="1">
          <mxGeometry x="537.5" y="760" width="140" height="40" as="geometry" />
        </mxCell>
        <mxCell id="OOvqdJ-VLrMjojBCIsOj-57" style="edgeStyle=orthogonalEdgeStyle;rounded=0;orthogonalLoop=1;jettySize=auto;html=1;entryX=0.5;entryY=0.5;entryDx=0;entryDy=-20;entryPerimeter=0;exitX=1;exitY=0.478;exitDx=0;exitDy=0;exitPerimeter=0;" edge="1" parent="1" source="OOvqdJ-VLrMjojBCIsOj-22" target="OOvqdJ-VLrMjojBCIsOj-19">
          <mxGeometry relative="1" as="geometry">
            <Array as="points">
              <mxPoint x="380" y="685" />
              <mxPoint x="380" y="723" />
              <mxPoint x="190" y="723" />
            </Array>
          </mxGeometry>
        </mxCell>
        <mxCell id="OOvqdJ-VLrMjojBCIsOj-58" style="edgeStyle=orthogonalEdgeStyle;rounded=0;orthogonalLoop=1;jettySize=auto;html=1;entryX=0.5;entryY=0.5;entryDx=0;entryDy=-20;entryPerimeter=0;" edge="1" parent="1" source="OOvqdJ-VLrMjojBCIsOj-22" target="OOvqdJ-VLrMjojBCIsOj-20">
          <mxGeometry relative="1" as="geometry" />
        </mxCell>
        <mxCell id="OOvqdJ-VLrMjojBCIsOj-59" style="edgeStyle=orthogonalEdgeStyle;rounded=0;orthogonalLoop=1;jettySize=auto;html=1;entryX=0.5;entryY=0.5;entryDx=0;entryDy=-20;entryPerimeter=0;" edge="1" parent="1" source="OOvqdJ-VLrMjojBCIsOj-22" target="OOvqdJ-VLrMjojBCIsOj-21">
          <mxGeometry relative="1" as="geometry">
            <mxPoint x="460" y="730" as="targetPoint" />
            <Array as="points">
              <mxPoint x="430" y="720" />
              <mxPoint x="608" y="720" />
            </Array>
          </mxGeometry>
        </mxCell>
        <mxCell id="OOvqdJ-VLrMjojBCIsOj-22" value="" style="html=1;points=[];perimeter=orthogonalPerimeter;fillColor=strokeColor;rotation=90;" vertex="1" parent="1">
          <mxGeometry x="400" y="610" width="5" height="145" as="geometry" />
        </mxCell>
        <mxCell id="OOvqdJ-VLrMjojBCIsOj-63" style="edgeStyle=orthogonalEdgeStyle;rounded=0;orthogonalLoop=1;jettySize=auto;html=1;entryX=0.5;entryY=0.5;entryDx=0;entryDy=-25;entryPerimeter=0;" edge="1" parent="1" source="OOvqdJ-VLrMjojBCIsOj-23" target="OOvqdJ-VLrMjojBCIsOj-24">
          <mxGeometry relative="1" as="geometry" />
        </mxCell>
        <mxCell id="OOvqdJ-VLrMjojBCIsOj-23" value="" style="html=1;points=[];perimeter=orthogonalPerimeter;fillColor=strokeColor;rotation=90;" vertex="1" parent="1">
          <mxGeometry x="400" y="807.5" width="5" height="150" as="geometry" />
        </mxCell>
        <mxCell id="OOvqdJ-VLrMjojBCIsOj-64" style="edgeStyle=orthogonalEdgeStyle;rounded=0;orthogonalLoop=1;jettySize=auto;html=1;entryX=0;entryY=0.5;entryDx=0;entryDy=0;entryPerimeter=0;" edge="1" parent="1" source="OOvqdJ-VLrMjojBCIsOj-24" target="OOvqdJ-VLrMjojBCIsOj-25">
          <mxGeometry relative="1" as="geometry" />
        </mxCell>
        <mxCell id="OOvqdJ-VLrMjojBCIsOj-24" value="View comic &lt;br&gt;Overview (details)" style="html=1;dashed=0;whiteSpace=wrap;shape=mxgraph.dfd.start" vertex="1" parent="1">
          <mxGeometry x="313.75" y="950" width="177.5" height="50" as="geometry" />
        </mxCell>
        <mxCell id="OOvqdJ-VLrMjojBCIsOj-28" style="edgeStyle=orthogonalEdgeStyle;rounded=0;orthogonalLoop=1;jettySize=auto;html=1;entryX=0;entryY=0.5;entryDx=0;entryDy=0;" edge="1" parent="1" source="OOvqdJ-VLrMjojBCIsOj-25" target="OOvqdJ-VLrMjojBCIsOj-26">
          <mxGeometry relative="1" as="geometry" />
        </mxCell>
        <mxCell id="OOvqdJ-VLrMjojBCIsOj-25" value="Read book" style="html=1;dashed=0;whiteSpace=wrap;shape=mxgraph.dfd.start" vertex="1" parent="1">
          <mxGeometry x="550" y="955" width="120" height="40" as="geometry" />
        </mxCell>
        <mxCell id="OOvqdJ-VLrMjojBCIsOj-26" value="" style="ellipse;html=1;shape=endState;fillColor=#000000;strokeColor=#ff0000;" vertex="1" parent="1">
          <mxGeometry x="730" y="960" width="30" height="30" as="geometry" />
        </mxCell>
        <mxCell id="OOvqdJ-VLrMjojBCIsOj-37" value="invalid" style="text;html=1;align=center;verticalAlign=middle;resizable=0;points=[];autosize=1;strokeColor=none;fillColor=none;" vertex="1" parent="1">
          <mxGeometry x="530" y="340" width="60" height="30" as="geometry" />
        </mxCell>
        <mxCell id="OOvqdJ-VLrMjojBCIsOj-39" value="valid" style="text;html=1;align=center;verticalAlign=middle;resizable=0;points=[];autosize=1;strokeColor=none;fillColor=none;" vertex="1" parent="1">
          <mxGeometry x="488.75" y="380" width="50" height="30" as="geometry" />
        </mxCell>
        <mxCell id="OOvqdJ-VLrMjojBCIsOj-42" value="invalid" style="text;html=1;align=center;verticalAlign=middle;resizable=0;points=[];autosize=1;strokeColor=none;fillColor=none;" vertex="1" parent="1">
          <mxGeometry x="220" y="340" width="60" height="30" as="geometry" />
        </mxCell>
        <mxCell id="OOvqdJ-VLrMjojBCIsOj-43" value="valid" style="text;html=1;align=center;verticalAlign=middle;resizable=0;points=[];autosize=1;strokeColor=none;fillColor=none;" vertex="1" parent="1">
          <mxGeometry x="260" y="380" width="50" height="30" as="geometry" />
        </mxCell>
        <mxCell id="OOvqdJ-VLrMjojBCIsOj-50" value="invalid" style="text;html=1;align=center;verticalAlign=middle;resizable=0;points=[];autosize=1;strokeColor=none;fillColor=none;" vertex="1" parent="1">
          <mxGeometry x="110" y="280" width="60" height="30" as="geometry" />
        </mxCell>
        <mxCell id="OOvqdJ-VLrMjojBCIsOj-51" value="valid" style="text;html=1;align=center;verticalAlign=middle;resizable=0;points=[];autosize=1;strokeColor=none;fillColor=none;" vertex="1" parent="1">
          <mxGeometry x="165" y="460" width="50" height="30" as="geometry" />
        </mxCell>
      </root>
    </mxGraphModel>
  </diagram>
</mxfile>
